<?xml version="1.0" encoding="UTF-8"?>
<svg version="1.1" xmlns="http://www.w3.org/2000/svg" width="1920" height="1080">
<path d="M0 0 C633.6 0 1267.2 0 1920 0 C1920 356.4 1920 712.8 1920 1080 C1286.4 1080 652.8 1080 0 1080 C0 723.6 0 367.2 0 0 Z " fill="#FEFEFE" transform="translate(0,0)"/>
<path d="M0 0 C4.52971735 2.30095204 7.20312194 5.57132633 8.9375 10.3125 C13.83270927 31.15562374 6.48367141 53.75119576 1.30664062 73.87573242 C-1.50603249 84.82159875 -3.90883515 95.85273262 -6.31835938 106.89306641 C-6.9582642 109.80976727 -7.60891939 112.72376027 -8.265625 115.63671875 C-8.54962158 116.89863037 -8.54962158 116.89863037 -8.83935547 118.18603516 C-9.18595669 119.72378187 -9.53385255 121.2612376 -9.88330078 122.79833984 C-10.71355636 126.36420481 -10.71355636 126.36420481 -11 130 C-10.10023438 129.75765625 -9.20046875 129.5153125 -8.2734375 129.265625 C27.43963187 119.8716789 27.43963187 119.8716789 41 121 C42.87109375 122.3359375 42.87109375 122.3359375 44 124 C43.875 126.5625 43.875 126.5625 43 129 C39.84063701 131.10624199 38.36398718 131.40124304 34.6796875 131.859375 C33.05740234 132.0744873 33.05740234 132.0744873 31.40234375 132.29394531 C30.23832031 132.44444336 29.07429688 132.59494141 27.875 132.75 C15.07825607 134.50349978 2.69175474 137.23241377 -9.79296875 140.51269531 C-12 141 -12 141 -15 141 C-15.19335938 142.72754517 -15.19335938 142.72754517 -15.390625 144.48999023 C-15.92917948 148.78141971 -16.7819142 152.9476845 -17.75 157.16015625 C-17.92378677 157.93013443 -18.09757355 158.70011261 -18.27662659 159.49342346 C-18.84737571 162.01730575 -19.42367599 164.53988544 -20 167.0625 C-20.40515614 168.85003204 -20.81001752 170.63763091 -21.21459961 172.42529297 C-23.2223226 181.28051862 -25.25675147 190.12937138 -27.31640625 198.97265625 C-28.06537801 202.19004052 -28.81412941 205.40747584 -29.5625 208.625 C-29.74867889 209.42507477 -29.93485779 210.22514954 -30.12667847 211.04946899 C-33.10596798 223.87618254 -35.88166648 236.73742297 -38.55639648 249.63079834 C-41.07399407 261.76101287 -43.76287734 273.8414986 -46.56362915 285.90924072 C-49.12187859 296.95000772 -51.4910602 308.01929961 -53.75 319.125 C-54.04543293 320.57068328 -54.3410833 322.01632214 -54.63696289 323.46191406 C-54.77860367 324.15397949 -54.92024445 324.84604492 -55.06617737 325.55908203 C-55.47171711 327.53974129 -55.8774569 329.52035959 -56.28320312 331.50097656 C-56.71566043 333.61200455 -57.14699468 335.72326366 -57.57617188 337.83496094 C-61.8086748 358.39636131 -69.33129009 381.82343472 -87.625 393.9375 C-95.16286202 398.67836164 -103.73007253 399.18947177 -112.4296875 397.5390625 C-127.00320043 393.1307045 -136.98301078 382.97991696 -144.07714844 369.83447266 C-149.42817858 359.19753074 -152.53849335 347.59748324 -155 336 C-155.226875 334.94296875 -155.45375 333.8859375 -155.6875 332.796875 C-163.26377578 290.07509769 -150.51936496 243.05545023 -126.1796875 207.67919922 C-106.12374539 179.13102665 -79.59372592 158.78491946 -48.3125 143.6875 C-47.42530273 143.25824219 -46.53810547 142.82898438 -45.62402344 142.38671875 C-41.69793554 140.53949075 -37.9048495 138.86868493 -33.6953125 137.7890625 C-30.07053401 136.84707225 -27.16700885 136.00120977 -24 134 C-21.75486165 130.0035389 -21.10349408 125.95313437 -20.42041016 121.48681641 C-19.77883103 117.69173803 -18.85422602 113.97194777 -17.95874023 110.22998047 C-15.96862602 101.8953141 -14.11708436 93.52743435 -12.234375 85.16796875 C-12.08620834 84.51029007 -11.93804169 83.85261139 -11.78538513 83.17500305 C-11.03848792 79.8589376 -10.29282698 76.54260179 -9.54907227 73.22583008 C-8.233932 67.37957752 -6.90290129 61.53992608 -5.48046875 55.71875 C-5.24980713 54.77362549 -5.01914551 53.82850098 -4.78149414 52.85473633 C-4.36379781 51.15769938 -3.94043206 49.46204037 -3.50952148 47.76831055 C-1.50676818 39.6472369 -0.85620875 31.53587033 -0.8125 23.1875 C-0.79832031 21.94355469 -0.78414062 20.69960938 -0.76953125 19.41796875 C-0.99024335 16.14469603 -1.58668962 13.9327587 -3 11 C-10.43067319 11.74199197 -14.11366892 15.62724682 -19 21 C-30.32760625 35.56406518 -37.80816487 52.3663852 -36 71 C-33.86961997 77.60913247 -28.62509687 81.31507302 -23 85 C-23.75 89.75 -23.75 89.75 -26 92 C-31.92195564 92 -35.80259958 88.82889203 -40 85 C-46.78438686 76.74871868 -48.00534782 67.38859417 -47 57 C-44.28299899 41.22772372 -36.89684127 27.43008915 -27 15 C-26.34064453 14.11248047 -26.34064453 14.11248047 -25.66796875 13.20703125 C-19.9487579 5.76631881 -9.86821924 -2.26702334 0 0 Z " fill="#FDFDFD" transform="translate(1031,367)"/>
<path d="M0 0 C4.52971735 2.30095204 7.20312194 5.57132633 8.9375 10.3125 C13.83270927 31.15562374 6.48367141 53.75119576 1.30664062 73.87573242 C-1.50603249 84.82159875 -3.90883515 95.85273262 -6.31835938 106.89306641 C-6.9582642 109.80976727 -7.60891939 112.72376027 -8.265625 115.63671875 C-8.54962158 116.89863037 -8.54962158 116.89863037 -8.83935547 118.18603516 C-9.18595669 119.72378187 -9.53385255 121.2612376 -9.88330078 122.79833984 C-10.71355636 126.36420481 -10.71355636 126.36420481 -11 130 C-10.10023438 129.75765625 -9.20046875 129.5153125 -8.2734375 129.265625 C27.43963187 119.8716789 27.43963187 119.8716789 41 121 C42.87109375 122.3359375 42.87109375 122.3359375 44 124 C43.875 126.5625 43.875 126.5625 43 129 C39.84063701 131.10624199 38.36398718 131.40124304 34.6796875 131.859375 C33.05740234 132.0744873 33.05740234 132.0744873 31.40234375 132.29394531 C30.23832031 132.44444336 29.07429688 132.59494141 27.875 132.75 C15.07825607 134.50349978 2.69175474 137.23241377 -9.79296875 140.51269531 C-12 141 -12 141 -15 141 C-15.19335938 142.72754517 -15.19335938 142.72754517 -15.390625 144.48999023 C-15.92917948 148.78141971 -16.7819142 152.9476845 -17.75 157.16015625 C-17.92378677 157.93013443 -18.09757355 158.70011261 -18.27662659 159.49342346 C-18.84737571 162.01730575 -19.42367599 164.53988544 -20 167.0625 C-20.40515614 168.85003204 -20.81001752 170.63763091 -21.21459961 172.42529297 C-23.2223226 181.28051862 -25.25675147 190.12937138 -27.31640625 198.97265625 C-28.06537801 202.19004052 -28.81412941 205.40747584 -29.5625 208.625 C-29.74867889 209.42507477 -29.93485779 210.22514954 -30.12667847 211.04946899 C-33.10596798 223.87618254 -35.88166648 236.73742297 -38.55639648 249.63079834 C-41.07399407 261.76101287 -43.76287734 273.8414986 -46.56362915 285.90924072 C-49.12187859 296.95000772 -51.4910602 308.01929961 -53.75 319.125 C-54.04543293 320.57068328 -54.3410833 322.01632214 -54.63696289 323.46191406 C-54.77860367 324.15397949 -54.92024445 324.84604492 -55.06617737 325.55908203 C-55.47171711 327.53974129 -55.8774569 329.52035959 -56.28320312 331.50097656 C-56.71566043 333.61200455 -57.14699468 335.72326366 -57.57617188 337.83496094 C-61.8086748 358.39636131 -69.33129009 381.82343472 -87.625 393.9375 C-95.16286202 398.67836164 -103.73007253 399.18947177 -112.4296875 397.5390625 C-127.00320043 393.1307045 -136.98301078 382.97991696 -144.07714844 369.83447266 C-149.42817858 359.19753074 -152.53849335 347.59748324 -155 336 C-155.226875 334.94296875 -155.45375 333.8859375 -155.6875 332.796875 C-163.26377578 290.07509769 -150.51936496 243.05545023 -126.1796875 207.67919922 C-106.12374539 179.13102665 -79.59372592 158.78491946 -48.3125 143.6875 C-47.42530273 143.25824219 -46.53810547 142.82898438 -45.62402344 142.38671875 C-41.69793554 140.53949075 -37.9048495 138.86868493 -33.6953125 137.7890625 C-30.07053401 136.84707225 -27.16700885 136.00120977 -24 134 C-21.75486165 130.0035389 -21.10349408 125.95313437 -20.42041016 121.48681641 C-19.77883103 117.69173803 -18.85422602 113.97194777 -17.95874023 110.22998047 C-15.96862602 101.8953141 -14.11708436 93.52743435 -12.234375 85.16796875 C-12.08620834 84.51029007 -11.93804169 83.85261139 -11.78538513 83.17500305 C-11.03848792 79.8589376 -10.29282698 76.54260179 -9.54907227 73.22583008 C-8.233932 67.37957752 -6.90290129 61.53992608 -5.48046875 55.71875 C-5.24980713 54.77362549 -5.01914551 53.82850098 -4.78149414 52.85473633 C-4.36379781 51.15769938 -3.94043206 49.46204037 -3.50952148 47.76831055 C-1.50676818 39.6472369 -0.85620875 31.53587033 -0.8125 23.1875 C-0.79832031 21.94355469 -0.78414062 20.69960938 -0.76953125 19.41796875 C-0.99024335 16.14469603 -1.58668962 13.9327587 -3 11 C-10.43067319 11.74199197 -14.11366892 15.62724682 -19 21 C-30.32760625 35.56406518 -37.80816487 52.3663852 -36 71 C-33.86961997 77.60913247 -28.62509687 81.31507302 -23 85 C-23.75 89.75 -23.75 89.75 -26 92 C-31.92195564 92 -35.80259958 88.82889203 -40 85 C-46.78438686 76.74871868 -48.00534782 67.38859417 -47 57 C-44.28299899 41.22772372 -36.89684127 27.43008915 -27 15 C-26.34064453 14.11248047 -26.34064453 14.11248047 -25.66796875 13.20703125 C-19.9487579 5.76631881 -9.86821924 -2.26702334 0 0 Z M-96 187 C-96.94488281 187.88042969 -97.88976562 188.76085937 -98.86328125 189.66796875 C-124.26930541 213.82900643 -138.75342644 245.92836512 -145 280 C-145.18167725 280.98145996 -145.36335449 281.96291992 -145.55053711 282.97412109 C-146.95847414 291.22321223 -147.34976062 299.26458012 -147.3125 307.625 C-147.30758545 308.93807129 -147.3026709 310.25114258 -147.29760742 311.60400391 C-147.0065064 335.90422192 -142.38212983 361.50552508 -124.7578125 379.421875 C-117.46484622 386.23966218 -111.17757351 388.38314455 -101.29296875 388.2734375 C-94.36420982 387.69809571 -89.44686987 384.30010125 -84.78515625 379.27734375 C-78.97548688 371.8658837 -74.96888145 363.70929264 -72.03125 354.8125 C-71.77532578 354.03887619 -71.51940155 353.26525238 -71.25572205 352.46818542 C-68.58681355 344.12007398 -66.79872053 335.62553108 -65.10095215 327.03601074 C-64.16913604 322.32285062 -63.20037772 317.61721007 -62.23828125 312.91015625 C-62.04833588 311.97533417 -61.8583905 311.04051208 -61.66268921 310.07736206 C-59.97087073 301.77502925 -58.14057963 293.50904084 -56.25 285.25 C-55.9624585 283.99010254 -55.67491699 282.73020508 -55.37866211 281.43212891 C-54.83251021 279.03947858 -54.28605823 276.64689673 -53.73925781 274.25439453 C-52.67538413 269.57096116 -51.64329312 264.88103196 -50.625 260.1875 C-50.43357422 259.30545898 -50.24214844 258.42341797 -50.04492188 257.51464844 C-48.86517255 252.05596705 -47.70062076 246.59412958 -46.54191589 241.13095093 C-41.90596875 219.27790956 -37.11527212 197.47098722 -32.04296875 175.71484375 C-31.79125412 174.63304337 -31.79125412 174.63304337 -31.53445435 173.52938843 C-30.65834486 169.77542663 -29.76542403 166.02634282 -28.85009766 162.28173828 C-28.66377274 161.51189102 -28.47744781 160.74204376 -28.28547668 159.9488678 C-27.93143404 158.48826048 -27.57291331 157.02872826 -27.20903015 155.57054138 C-26.34127713 151.97486493 -25.80085261 148.70145625 -26 145 C-48.74652412 145 -80.67672046 172.48445923 -96 187 Z " fill="#070707" transform="translate(1031,367)"/>
</svg>
